#tb 0: 1/48000
#media_type 0: audio
#codec_id 0: pcm_s24le
#sample_rate 0: 48000
#channel_layout_name 0: 7.1
0,          0,          0,      512,    12288, 0xa5edf1df
0,        512,        512,      512,    12288, 0x00000000
0,       1024,       1024,      512,    12288, 0x6613373c
0,       1536,       1536,      512,    12288, 0xa36ccec0
0,       2048,       2048,      512,    12288, 0xdf1c88c5
0,       2560,       2560,      512,    12288, 0x71c4dd77
